<?xml version="1.0" standalone="no"?>
<!DOCTYPE svg PUBLIC "-//W3C//DTD SVG 20010904//EN"
 "http://www.w3.org/TR/2001/REC-SVG-20010904/DTD/svg10.dtd">
<svg version="1.0" xmlns="http://www.w3.org/2000/svg"
 width="200.000000pt" height="200.000000pt" viewBox="0 0 200.000000 200.000000"
 preserveAspectRatio="xMidYMid meet">
<metadata>
Created by potrace 1.16, written by Peter Selinger 2001-2019
</metadata>
<g transform="translate(0.000000,200.000000) scale(0.100000,-0.100000)"
fill="#000000" stroke="none">
<path d="M19 1182 c-21 -104 -16 -300 10 -406 32 -133 123 -334 140 -309 3 6
22 13 41 16 19 3 55 10 80 16 136 32 619 63 604 39 -5 -7 -3 -8 6 -3 10 6 9
11 -5 22 -11 7 -22 13 -27 13 -4 0 -8 5 -8 11 0 5 5 7 12 3 7 -4 8 -3 4 4 -7
12 -36 5 -36 -9 0 -5 -8 -9 -19 -9 -27 0 -34 47 -10 71 20 20 25 49 9 49 -5 0
-10 8 -10 17 0 14 5 12 28 -8 32 -30 82 -53 82 -39 0 6 -6 10 -12 10 -9 0 -8
3 2 9 20 13 33 3 27 -21 -4 -14 -2 -18 9 -14 11 4 14 -10 16 -77 l2 -82 3 78
c3 66 1 82 -17 107 -18 25 -24 28 -45 20 -20 -8 -30 -4 -55 17 -24 20 -34 23
-43 14 -9 -9 -8 -16 1 -32 18 -29 10 -35 -42 -31 -41 4 -46 7 -46 28 0 19 -5
24 -27 25 -16 1 -32 1 -36 0 -5 -1 -14 12 -20 29 -9 25 -17 30 -44 30 -23 0
-33 5 -33 15 0 8 5 15 10 15 6 0 10 17 10 39 l0 38 -90 7 c-68 6 -90 11 -90
22 0 10 -12 14 -40 14 l-40 0 0 60 0 60 -60 0 c-33 0 -60 4 -60 10 0 5 -12 17
-27 27 -20 13 -27 15 -31 5 -3 -10 -10 -9 -29 3 -28 19 -27 20 -42 -20 l-11
-30 6 35 c9 48 8 48 59 47 38 -2 43 0 29 10 -9 7 -21 10 -27 6 -5 -3 -6 3 -2
16 5 16 2 21 -10 21 -12 0 -16 -6 -12 -20 4 -15 0 -20 -14 -20 -15 0 -19 8
-20 38 -1 20 0 44 1 52 1 10 -3 9 -14 -5 -15 -20 -15 -20 -10 1 3 12 1 24 -4
28 -6 3 -15 -23 -23 -62z"/>
</g>
</svg>
